# xmcd
#
# Track frame offsets: 
#        150
#        12629
#        25144
#        40182
#        52975
#        70903
#        83455
#        94474
#        102969
#        112971
#        124199
#        134574
#        146724
#        162874
#        171340
#        183090
#        195804
#        204051
#        211924
#        221711
#
# Disc length: 3087 seconds
#
# Revision: 0
# Processed by: cddbd v1.5.2PL0 Copyright (c) Steve Scherf et al.
# Submitted via: ExactAudioCopy v0.95a5
#
DISCID=140c0d14
DTITLE=Johnny Cash - Walk the line
DYEAR=1900
DGENRE=Country
TTITLE0=Ring of fire
TTITLE1=I walk the line
TTITLE2=A boy named Sue
TTITLE3=San Quentin
TTITLE4=Orange Blossom Special
TTITLE5=The one on the right is on the left
TTITLE6=I love you because
TTITLE7=Country boy
TTITLE8=Ballad of a teenage queen
TTITLE9=Oh lonesome me
TTITLE10=You win again
TTITLE11=You`re the nearest thing to heaven
TTITLE12=City of New Orleans
TTITLE13=I got stripes
TTITLE14=The highway man
TTITLE15=Peace in the valley
TTITLE16=Sugartime
TTITLE17=Hey good lookin`
TTITLE18=Just about time
TTITLE19=Goodbye little darling
EXTD=
EXTT0=
EXTT1=
EXTT2=
EXTT3=
EXTT4=
EXTT5=
EXTT6=
EXTT7=
EXTT8=
EXTT9=
EXTT10=
EXTT11=
EXTT12=
EXTT13=
EXTT14=
EXTT15=
EXTT16=
EXTT17=
EXTT18=
EXTT19=
PLAYORDER=
